<?xml version="1.0" encoding="utf-8"?>
<!-- Generator: Adobe Illustrator 27.5.0, SVG Export Plug-In . SVG Version: 6.00 Build 0)  -->
<svg version="1.1" id="PRINT" xmlns="http://www.w3.org/2000/svg" xmlns:xlink="http://www.w3.org/1999/xlink" x="0px" y="0px"
	 viewBox="0 170 500 160" style="enable-background:new 0 0 500 500;" xml:space="preserve">
<g>
	<!-- Remove white background -->
	<!-- <rect id="CUSTOM-Background" style="fill:#FFFFFF;" width="500" height="500"/> -->
	
	<linearGradient id="CUSTOM_00000020369419020194791910000007378188032064203170_" gradientUnits="userSpaceOnUse" x1="72" y1="252" x2="188.3164" y2="252" gradientTransform="matrix(1 0 0 -1 0 502)">
		<stop  offset="0" style="stop-color:#00F2FE"/>
		<stop  offset="0.0208" style="stop-color:#03EFFE"/>
		<stop  offset="0.2931" style="stop-color:#24D2FE"/>
		<stop  offset="0.5538" style="stop-color:#3CBDFE"/>
		<stop  offset="0.7956" style="stop-color:#4AB0FE"/>
		<stop  offset="1" style="stop-color:#4FACFE"/>
	</linearGradient>
	<path id="CUSTOM" style="fill:url(#CUSTOM_00000020369419020194791910000007378188032064203170_);" d="M141.517,289.984v13.631
		c0,2.51-2.034,4.544-4.544,4.544h-9.087c-7.517,0-13.631-6.114-13.631-13.631v-2.289c0-0.602-0.379-1.147-0.966-1.39l-0.06-0.025
		c-0.008-0.003-0.016-0.006-0.023-0.01c-0.59-0.245-1.246-0.128-1.671,0.298l-1.619,1.619c-5.314,5.314-13.962,5.314-19.277,0
		l-3.213-3.213c-2.574-2.574-3.992-5.997-3.992-9.638c0-3.641,1.417-7.064,3.993-9.638l1.618-1.619
		c0.425-0.425,0.542-1.081,0.298-1.67l-0.037-0.089c-0.24-0.582-0.785-0.961-1.387-0.961h-2.289
		c-7.516,0-13.631-6.114-13.631-13.631v-4.544c0-7.516,6.114-13.631,13.631-13.631h2.289c0.602,0,1.147-0.379,1.39-0.966
		l0.035-0.083c0.245-0.591,0.128-1.246-0.298-1.672l-1.618-1.618c-2.575-2.574-3.993-5.997-3.993-9.638
		c0-3.641,1.418-7.065,3.993-9.639l3.212-3.212c2.575-2.574,5.997-3.993,9.638-3.993c3.641,0,7.064,1.418,9.639,3.993l1.618,1.618
		c0.426,0.426,1.082,0.542,1.671,0.298c0.007-0.004,0.015-0.006,0.023-0.01l0.075-0.031c0.571-0.236,0.951-0.782,0.951-1.383v-2.289
		c0-7.516,6.114-13.631,13.631-13.631h9.087c2.509,0,4.544,2.034,4.544,4.544v13.631c0,2.51-2.035,4.544-4.544,4.544
		c-2.51,0-4.544-2.034-4.544-4.544v-9.087h-4.544c-2.506,0-4.544,2.038-4.544,4.544v2.289c0,4.294-2.585,8.137-6.585,9.788
		l-0.074,0.031c-3.997,1.658-8.54,0.768-11.575-2.267l-1.619-1.618c-0.858-0.859-1.999-1.331-3.213-1.331
		c-1.214,0-2.354,0.472-3.212,1.331l-3.213,3.213c-0.858,0.858-1.33,1.999-1.33,3.213c0,1.213,0.472,2.354,1.33,3.212l1.618,1.618
		c3.037,3.037,3.926,7.583,2.265,11.583l-0.025,0.061c-1.655,4.004-5.497,6.589-9.792,6.589h-2.289
		c-2.505,0-4.544,2.038-4.544,4.544v4.544c0,2.505,2.038,4.544,4.544,4.544h2.289c4.294,0,8.137,2.585,9.788,6.585l0.034,0.08
		c1.655,3.985,0.767,8.532-2.27,11.568l-1.619,1.618c-0.858,0.858-1.33,1.999-1.33,3.213c0,1.213,0.472,2.354,1.33,3.212
		l3.213,3.213c1.771,1.771,4.654,1.771,6.426,0l1.618-1.619c3.035-3.034,7.578-3.924,11.576-2.266l0.059,0.024
		c4.015,1.658,6.599,5.5,6.599,9.794v2.289c0,2.505,2.038,4.544,4.544,4.544h4.544v-9.087c0-2.51,2.034-4.544,4.544-4.544
		C139.483,285.44,141.517,287.474,141.517,289.984z M180.365,242.049c-2.701,0-5.087,1.349-6.523,3.408h-35.343
		c-1.437-2.059-3.822-3.408-6.523-3.408c-4.391,0-7.951,3.56-7.951,7.951s3.56,7.951,7.951,7.951c2.701,0,5.087-1.349,6.523-3.408
		h35.343c1.437,2.059,3.822,3.408,6.523,3.408c4.391,0,7.951-3.56,7.951-7.951S184.756,242.049,180.365,242.049z M180.365,279.306
		c-0.567,0-1.12,0.06-1.653,0.173l-11.059-10.906c-0.85-0.838-1.996-1.308-3.19-1.308h-34.304c-9.52,0-17.266-7.745-17.266-17.266
		s7.745-17.266,17.266-17.266h34.304c1.205,0,2.361-0.478,3.212-1.33l11.097-11.097c0.515,0.105,1.047,0.16,1.593,0.16
		c4.391,0,7.951-3.559,7.951-7.951c0-4.391-3.56-7.951-7.951-7.951c-4.391,0-7.951,3.56-7.951,7.951
		c0,0.411,0.031,0.814,0.091,1.208l-9.925,9.924h-32.422c-14.531,0-26.353,11.821-26.353,26.353
		c0,14.532,11.822,26.353,26.353,26.353h32.441l9.898,9.761c-0.054,0.374-0.083,0.755-0.083,1.144c0,4.391,3.56,7.951,7.951,7.951
		c4.391,0,7.951-3.56,7.951-7.951S184.756,279.306,180.365,279.306z"/>
	<text transform="matrix(1 0 0 1 202.4111 262.7197)" style="fill:#3292E6; font-family:'Orbitron', sans-serif; font-size:47.4897px; font-weight:bold;">PrepOnyx</text>
</g>
</svg>